<svg xmlns="http://www.w3.org/2000/svg" width="17.773" height="10" viewBox="0 0 17.773 10"><defs><style>.a{fill:#63798e;opacity:0.5;}</style></defs><path class="a" d="M10.606,1.588a.555.555,0,0,1,.5.553V8.25h.559v-5a.555.555,0,0,1,.553-.553H16.19a.556.556,0,0,1,.463.357l1.083,2.813a.553.553,0,0,1,.037.2V9.924a.555.555,0,0,1-.553.553H16.006a1.662,1.662,0,0,1-3.23-.553v.549a.555.555,0,0,1-.558.558H6.666a.554.554,0,0,1-.528-.381L5.709,9.362h-.26a1.632,1.632,0,0,1,.106.562,1.667,1.667,0,0,1-3.333,0c0-.046.01-.09.014-.136l-.662.991a.556.556,0,1,1-.926-.614l.536-.8H.558A.555.555,0,0,1,0,8.809V2.142a.555.555,0,0,1,.558-.553H10.606ZM15.752,3.81H14.439V6.033H16.61ZM14.439,9.366A.555.555,0,1,0,15,9.924.547.547,0,0,0,14.439,9.366Zm-10.553,0a.555.555,0,1,0,.558.558A.547.547,0,0,0,3.887,9.366Z" transform="translate(0 -1.588)"/></svg>