<svg xmlns="http://www.w3.org/2000/svg" width="14.444" height="10" viewBox="0 0 14.444 10"><defs><style>.a{opacity:0.5;}.b{fill:#63798e;}</style></defs><g class="a" transform="translate(-3 -7)"><path class="b" d="M17.444,8.111A1.111,1.111,0,0,0,16.333,7H4.111A1.111,1.111,0,0,0,3,8.111V9.222H17.444Z"/><rect class="b" width="14.444" height="1.111" transform="translate(3 10.333)"/><path class="b" d="M3,20.333a1.111,1.111,0,0,0,1.111,1.111H16.333a1.111,1.111,0,0,0,1.111-1.111V17H3Zm10-1.667h2.222a.556.556,0,1,1,0,1.111H13a.556.556,0,0,1,0-1.111Z" transform="translate(0 -4.444)"/></g></svg>